<svg height="60" viewBox="0 0 60 60" width="60" xmlns="http://www.w3.org/2000/svg"><path d="M42 60a.9986.9986 0 01-.9541-.7022l-2.998-9.5957a.9995.9995 0 111.9082-.5957l2.998 9.5957a.9988.9988 0 01-.6562 1.252A.9859.9859 0 0142 60zM18 60a1.0207 1.0207 0 01-.2979-.045 1.0012 1.0012 0 01-.6572-1.2528l3.0244-9.7002a1.0004 1.0004 0 011.9102.5956L18.955 59.298A1.001 1.001 0 0118 60zM30 30a4 4 0 114-4 4.004 4.004 0 01-4 4zm0-6a2 2 0 102 2 2.0026 2.0026 0 00-2-2zM27.1162 47.7793a.9519.9519 0 01-.1377-.0098 21.8788 21.8788 0 01-11.3262-5.1142.9998.9998 0 111.3067-1.5137 19.8815 19.8815 0 0010.293 4.6475.9998.9998 0 01-.1357 1.9902zM11.2412 36.4092a1.0006 1.0006 0 01-.8945-.5518A21.8305 21.8305 0 018.209 28.877a.9997.9997 0 011.9824-.2598 19.8553 19.8553 0 001.9424 6.3438 1.0003 1.0003 0 01-.8926 1.4482zM9.0518 26c-.0157 0-.0323 0-.0479-.001a1.0007 1.0007 0 01-.9521-1.0459 21.815 21.815 0 014.7255-12.6191 1.0002 1.0002 0 111.5665 1.2441 19.821 19.821 0 00-4.294 11.4688 1.0001 1.0001 0 01-.998.9531zM17.001 10.5273a1 1 0 01-.621-1.7841A21.9148 21.9148 0 0127.123 4.209a.9997.9997 0 01.2598 1.9824 19.9145 19.9145 0 00-9.7627 4.1201.9936.9936 0 01-.6191.2158zM42.999 10.5273a.9936.9936 0 01-.6191-.2158 19.9145 19.9145 0 00-9.7627-4.1201.9997.9997 0 01.2598-1.9824 21.9148 21.9148 0 0110.7431 4.5342 1 1 0 01-.621 1.7841zM50.9482 26a1.0001 1.0001 0 01-.998-.9531 19.821 19.821 0 00-4.294-11.4688 1.0002 1.0002 0 111.5665-1.2441 21.815 21.815 0 014.7255 12.6191 1.0007 1.0007 0 01-.9521 1.046C50.9805 26 50.9639 26 50.9482 26zM46.4717 40a1 1 0 01-.7832-1.6201 19.9145 19.9145 0 004.1201-9.7627.9997.9997 0 011.9824.2598 21.9148 21.9148 0 01-4.5342 10.7432.9962.9962 0 01-.7851.3798zM32.8838 47.7793a.9998.9998 0 01-.1358-1.9902 19.8815 19.8815 0 0010.293-4.6475.9998.9998 0 111.3066 1.5137 21.8788 21.8788 0 01-11.3261 5.1142.9519.9519 0 01-.1377.0098z" fill="#6e6d9e"/><path d="M27 27H11a1 1 0 010-2h16a1 1 0 010 2zM49 27H33a1 1 0 010-2h16a1 1 0 010 2zM30 60a.9994.9994 0 01-1-1v-6.3496a1 1 0 112 0V59a.9994.9994 0 01-1 1z" fill="#6e6d9e"/><path d="M42 60H22a1 1 0 010-2h20a1 1 0 010 2zM30 46a.9994.9994 0 01-1-1V29a1 1 0 012 0v16a.9994.9994 0 01-1 1zM30 24a.9994.9994 0 01-1-1v-7a1 1 0 012 0v7a.9994.9994 0 01-1 1zm0-11a.9994.9994 0 01-1-1V7a1 1 0 012 0v5a.9994.9994 0 01-1 1zM27.879 24.879a.9968.9968 0 01-.707-.293L15.414 12.828a.9999.9999 0 011.4141-1.414L28.586 23.1719a1 1 0 01-.707 1.707zM40.6065 37.6065a.9968.9968 0 01-.707-.293L31.414 28.828a.9999.9999 0 011.414-1.414l8.4854 8.4853a1 1 0 01-.707 1.707zM17 40a1 1 0 01-.707-1.707l10.8789-10.879a.9999.9999 0 011.414 1.4141L17.707 39.707A.9968.9968 0 0117 40zM32.1201 24.8799a1 1 0 01-.707-1.707L43.172 11.414a.9999.9999 0 011.414 1.414L32.8272 24.587a.9968.9968 0 01-.707.293zM8 30a4.004 4.004 0 01-4-4v-1a.9994.9994 0 011-1h6a.9994.9994 0 011 1v1a4.004 4.004 0 01-4 4zm-2-4a2 2 0 004 0z" fill="#6e6d9e"/><path d="M14 44a4.004 4.004 0 01-4-4v-1a.9994.9994 0 011-1h6a.9994.9994 0 011 1v1a4.004 4.004 0 01-4 4zm-2-4a2 2 0 004 0zM46 44a4.004 4.004 0 01-4-4v-1a.9994.9994 0 011-1h6a.9994.9994 0 011 1v1a4.004 4.004 0 01-4 4zm-2-4a2 2 0 004 0zM14 14a4.004 4.004 0 01-4-4V9a.9994.9994 0 011-1h2a1 1 0 010 2h-1a2 2 0 004 0V9a1 1 0 012 0v1a4.004 4.004 0 01-4 4zM46 14a4.004 4.004 0 01-4-4V9a.9994.9994 0 011-1h6a.9994.9994 0 011 1v1a4.004 4.004 0 01-4 4zm-2-4a2 2 0 004 0zM30 8a4.004 4.004 0 01-4-4V3a.9994.9994 0 011-1h6a.9994.9994 0 011 1v1a4.004 4.004 0 01-4 4zm-2-4a2 2 0 004 0zM30 50a4.004 4.004 0 01-4-4v-1a.9994.9994 0 011-1h6a.9994.9994 0 011 1v1a4.004 4.004 0 01-4 4zm-2-4a2 2 0 004 0zM52 30a4.004 4.004 0 01-4-4v-1a.9994.9994 0 011-1h6a.9994.9994 0 011 1v1a4.004 4.004 0 01-4 4zm-2-4a2 2 0 004 0z" fill="#6e6d9e"/></svg>
