<?xml version="1.0" standalone="no"?>
<!DOCTYPE svg PUBLIC "-//W3C//DTD SVG 20010904//EN"
 "http://www.w3.org/TR/2001/REC-SVG-20010904/DTD/svg10.dtd">
<svg version="1.0" xmlns="http://www.w3.org/2000/svg"
 width="700.000000pt" height="700.000000pt" viewBox="0 0 700.000000 700.000000"
 preserveAspectRatio="xMidYMid meet">
<metadata>
Created by potrace 1.11, written by Peter Selinger 2001-2013
</metadata>
<g transform="translate(0.000000,700.000000) scale(0.100000,-0.100000)"
fill="#000000" stroke="none">
<path d="M3097 6751 c-49 -24 -64 -65 -63 -169 l1 -90 -130 -32 c-140 -34
-197 -52 -345 -107 -94 -35 -337 -155 -390 -193 -16 -11 -33 -20 -38 -20 -6 0
-12 -3 -14 -7 -9 -22 -97 -67 -132 -69 -90 -5 -117 -45 -120 -187 -4 -132 -25
-176 -117 -245 -26 -20 -59 -26 -126 -25 -112 1 -197 73 -218 186 -7 36 -6 37
21 37 85 2 133 9 156 24 67 44 63 159 -8 196 -20 11 -64 15 -174 15 -163 0
-190 -7 -217 -59 -22 -41 -21 -223 0 -297 29 -97 99 -196 187 -261 l22 -16
-50 -79 c-104 -163 -179 -315 -250 -503 -37 -99 -94 -302 -107 -380 -3 -19 -8
-42 -10 -50 -2 -8 -7 -37 -10 -65 -3 -27 -7 -59 -9 -70 -3 -11 -5 -35 -5 -52
l-1 -33 -197 0 c-178 0 -201 -2 -230 -20 -17 -10 -37 -29 -43 -41 -16 -29 -16
-211 0 -279 47 -203 242 -359 452 -360 l47 0 11 -57 c48 -242 192 -622 253
-667 61 -45 149 -16 176 60 13 38 13 41 -46 179 -69 161 -128 338 -149 448 -9
52 -16 83 -20 97 -2 9 21 42 57 78 54 57 119 165 119 200 0 9 174 12 834 12
l834 0 12 -37 c7 -21 18 -48 26 -60 13 -20 -16 -50 -568 -602 -514 -514 -584
-581 -612 -582 -17 0 -164 0 -326 -1 -163 0 -307 -2 -321 -5 -38 -7 -76 -44
-86 -83 -12 -44 -7 -190 8 -255 41 -176 188 -314 373 -351 88 -17 200 1 294
48 l62 31 43 -31 c311 -234 740 -423 1082 -477 35 -6 44 -13 70 -57 56 -94
170 -177 286 -208 53 -15 166 -14 221 0 114 31 226 113 282 207 l29 48 106 24
c58 12 114 24 123 26 66 13 340 115 444 164 160 77 345 189 467 284 l28 22 47
-26 c139 -77 285 -81 430 -13 118 57 221 179 248 294 4 19 9 42 11 50 10 41 5
218 -7 241 -16 29 -48 59 -67 60 -7 1 -17 3 -23 4 -5 1 -25 3 -44 4 l-34 1 50
83 c45 73 168 318 168 333 0 3 7 20 15 37 35 76 99 292 125 420 l11 57 47 0
c175 1 338 105 416 265 38 78 49 138 48 266 0 97 -9 121 -55 149 -29 18 -52
20 -229 20 l-198 0 -1 28 c-4 123 -52 352 -111 532 -70 216 -154 392 -282 594
l-50 79 25 16 c81 51 164 174 189 280 20 83 17 241 -5 278 -35 59 -26 58 -451
60 l-390 2 -105 66 c-129 82 -329 181 -472 234 -112 42 -316 100 -377 108 -19
3 -39 9 -44 14 -5 5 -10 50 -10 102 -1 72 -5 99 -19 121 -35 52 -51 54 -450
54 -317 -1 -372 -3 -400 -17z m633 -242 c0 -36 -24 -90 -56 -128 -86 -102
-262 -102 -348 0 -41 48 -70 132 -52 150 2 2 106 4 230 4 l226 0 0 -26z m-559
-302 c59 -56 156 -117 187 -117 6 0 14 -5 18 -11 4 -7 7 -125 8 -263 1 -226 3
-255 19 -280 34 -52 110 -65 165 -29 45 28 49 60 48 325 l-1 247 54 21 c63 24
136 75 182 128 36 41 31 41 164 11 272 -61 544 -177 775 -331 l108 -71 6 -56
c4 -31 18 -86 32 -122 l25 -66 -612 -611 -611 -611 -45 20 c-24 10 -51 19 -59
19 -17 0 -15 -39 -17 402 l-2 367 -29 30 c-54 56 -144 50 -181 -12 -19 -30
-20 -53 -21 -400 0 -209 -5 -371 -10 -376 -5 -4 -32 -17 -61 -28 l-51 -21
-606 606 c-333 334 -609 610 -612 614 -4 4 3 27 14 51 11 24 24 61 28 83 5 21
9 42 10 47 1 4 2 18 3 32 2 37 119 120 326 230 167 88 381 165 595 213 47 11
85 20 85 21 0 0 30 -28 66 -62z m2422 -413 c-4 -55 -50 -123 -107 -158 -42
-27 -58 -30 -121 -30 -53 0 -79 4 -101 18 -71 45 -114 104 -127 173 -8 40 -17
38 253 37 l205 -1 -2 -39z m-3110 -973 c334 -334 607 -612 607 -618 0 -5 -10
-34 -22 -64 l-23 -55 -822 0 -821 0 -11 37 c-17 55 -61 79 -145 79 l-67 0 5
33 c2 17 8 52 11 77 32 230 102 453 215 685 63 129 189 336 222 362 7 6 37 14
67 17 29 4 79 17 110 30 31 13 58 24 61 25 3 0 278 -273 613 -608z m2692 589
c25 -18 104 -38 155 -39 33 -1 39 -7 109 -112 118 -176 222 -393 286 -599 15
-47 28 -92 30 -100 2 -8 10 -44 18 -80 15 -65 33 -172 42 -242 l4 -38 -67 0
c-49 0 -75 -5 -96 -19 -31 -21 -55 -56 -56 -81 0 -14 -90 -16 -823 -16 l-823
0 -25 61 -25 62 611 612 c628 628 619 620 660 591z m-1607 -1222 c59 -15 135
-88 151 -144 25 -91 7 -173 -52 -235 -65 -68 -148 -90 -238 -63 -55 16 -121
77 -144 130 -35 84 -13 187 55 254 65 66 131 83 228 58z m-2404 -233 c7 -19
-30 -114 -55 -141 -70 -75 -180 -99 -266 -59 -64 30 -108 76 -127 132 -30 88
-46 82 214 81 164 -1 230 -5 234 -13z m5136 -3 c0 -97 -107 -206 -211 -217
-130 -13 -262 104 -250 221 1 8 71 11 231 11 198 0 230 -2 230 -15z m-680
-114 c0 -35 65 -143 119 -199 44 -46 59 -68 56 -83 -3 -12 -14 -63 -25 -114
-38 -174 -117 -388 -208 -562 -58 -111 -189 -310 -205 -311 -7 0 -92 0 -190
-1 -165 0 -180 -2 -210 -22 -53 -36 -59 -57 -54 -196 3 -89 9 -138 22 -168 21
-52 23 -49 -100 -131 -44 -30 -93 -63 -110 -74 -118 -82 -421 -211 -615 -262
-134 -35 -135 -35 -136 24 0 58 -23 98 -67 116 -20 8 -77 13 -151 14 -66 0
-122 5 -125 10 -7 10 -7 1629 0 1634 2 1 30 13 62 26 l58 23 463 -462 c254
-255 475 -469 490 -477 83 -43 187 58 153 149 -4 12 -219 233 -477 491 -442
443 -468 471 -456 491 8 11 19 38 26 59 l12 37 834 0 c660 0 834 -3 834 -12z
m-2292 -304 c30 -11 52 -25 53 -34 4 -75 1 -1622 -4 -1626 -3 -3 -59 -6 -124
-6 -184 0 -219 -26 -222 -160 -1 -26 -3 -27 -28 -17 -16 6 -29 10 -31 9 -5 -3
-71 13 -145 36 -233 72 -440 171 -638 305 -65 44 -121 84 -123 88 -3 4 3 36
13 71 10 36 19 96 20 135 l3 70 576 577 c317 318 582 576 587 574 6 -2 34 -12
63 -22z m-1491 -1203 c31 -1 32 -2 26 -33 -32 -169 -217 -249 -357 -156 -26
16 -57 49 -70 72 -25 42 -41 100 -33 113 4 6 273 9 434 4z m3756 -36 c-2 -52
-50 -124 -103 -157 -141 -87 -319 -7 -354 159 -9 40 -17 38 254 37 l205 -2 -2
-37z m-1865 -674 c10 -31 -24 -108 -67 -151 -105 -105 -263 -90 -351 32 -30
41 -49 116 -32 127 6 3 108 5 228 5 161 -1 219 -5 222 -13z"/>
<path d="M2425 1361 c-59 -17 -73 -42 -128 -221 -25 -80 -102 -327 -172 -550
-70 -223 -131 -420 -137 -438 -12 -42 3 -90 38 -123 20 -19 37 -24 76 -24 43
0 53 4 78 31 17 20 38 65 54 120 15 49 31 100 36 114 5 14 48 151 95 305 48
154 93 298 100 320 8 22 30 94 50 160 20 66 42 135 48 153 28 83 -57 177 -138
153z"/>
<path d="M4483 1328 c-36 -25 -52 -59 -47 -100 2 -25 53 -196 89 -303 8 -22
33 -101 55 -175 23 -74 56 -182 75 -240 29 -91 57 -183 79 -256 l6 -20 -552 1
c-304 1 -557 3 -563 3 -6 1 -10 116 -9 322 1 344 -2 362 -52 395 -32 21 -94
22 -126 1 -53 -35 -55 -50 -54 -393 1 -200 -3 -317 -9 -321 -5 -4 -197 -7
-425 -8 -306 -1 -421 -4 -438 -13 -29 -15 -62 -68 -62 -99 0 -44 26 -88 63
-105 32 -16 134 -17 1227 -17 1330 0 1231 -5 1266 69 15 30 15 42 5 81 -15 55
-99 327 -111 355 -4 11 -19 58 -33 105 -79 264 -211 677 -223 696 -32 47 -110
58 -161 22z"/>
</g>
</svg>
